<?xml version="1.0" encoding="utf-8"?>
<!-- Generator: Adobe Illustrator 23.0.1, SVG Export Plug-In . SVG Version: 6.00 Build 0)  -->
<svg version="1.1" id="OBJECTS" xmlns="http://www.w3.org/2000/svg" xmlns:xlink="http://www.w3.org/1999/xlink" x="0px" y="0px"
	 viewBox="0 0 148.6 147.1" style="enable-background:new 0 0 148.6 147.1;" xml:space="preserve">
<style type="text/css">
	.st0{display:none;}
	.st1{display:inline;}
	.st2{fill:#444242;}
	.st3{fill:#FFFFFF;}
	.st4{display:inline;fill:#444242;}
	.st5{display:inline;fill:#FFFFFF;}
</style>
<g class="st0">
	<g class="st1">
		<path class="st2" d="M142.9,118.4c0,12.9-10.4,23.3-23.3,23.3H29.6c-12.9,0-23.3-10.4-23.3-23.3V28.5c0-12.9,10.4-23.3,23.3-23.3
			h89.9c12.9,0,23.3,10.4,23.3,23.3V118.4z"/>
	</g>
	<g class="st1">
		<polygon class="st3" points="122.3,35.9 122.3,35.9 122.3,35.9 		"/>
		<path class="st3" d="M118.6,45.7c-2.1,0.6-3.7,0.5-3.7,0.5l0.1-0.4c1.9-1.5,6.8-6.3,7.4-8.5c0.3-1-0.1-1.3-0.1-1.3l-6.2,2.6
			l-5.2,2.3l0,0c-3.6-3.8-9-6.2-15.1-6.2c-10.8,0-19.6,7.7-19.6,17.1c0,1.7,0.3,4.9,0.8,6.5c0,0.5,0-0.5,0,0c-7-0.2-15.9-3-23.8-7.1
			c-15.7-7.9-16.7-13.4-16.7-13.4c-2.5,2.6-3.7,11.3-1.2,18.1c1.6,4.3,7.1,8.2,7.1,8.2l0,0c0,0-2.5,0-5-0.8
			c-2.6-0.9-3.5-1.7-3.5-1.7c-1.5,3.7,1.5,10.4,6.8,15.2c3.1,2.8,8.7,4.5,8.7,4.5l-8.8,0.2c-0.5,8.6,18,13.7,18,13.7l0,0
			c-5.4,4.2-11.7,6.7-18.4,6.7c-3.5,0-6.9-0.5-10.1-1.5c8.9,7.3,20.3,12.4,32.8,11.7c33-1.7,51.6-30.1,52.5-58l0,0.1
			c0,0,1.5-0.8,4.9-4.1c3.3-3.3,5.4-7.2,5.4-7.2S120.7,45.1,118.6,45.7z"/>
		<path class="st3" d="M122.3,35.9C122.4,36.5,122.3,36,122.3,35.9L122.3,35.9z"/>
	</g>
</g>
<g class="st0">
	<path class="st4" d="M142.9,118.4c0,12.9-10.4,23.3-23.3,23.3H29.6c-12.9,0-23.3-10.4-23.3-23.3V28.5c0-12.9,10.4-23.3,23.3-23.3
		h89.9c12.9,0,23.3,10.5,23.3,23.3V118.4z"/>
	<path class="st5" d="M100,141.7V89.3h17.6l2.6-20.4H100v-13c0-5.9,1.6-9.9,10.1-9.9l10.8,0V27.6c-1.9-0.2-8.3-0.8-15.8-0.8
		c-15.6,0-26.3,9.5-26.3,27v15.1H61.3v20.4h17.6v52.4H100L100,141.7z"/>
</g>
<g>
	<path class="st2" d="M142.9,118.4c0,12.9-10.4,23.3-23.3,23.3H29.6c-12.9,0-23.3-10.4-23.3-23.3V28.5c0-12.9,10.4-23.3,23.3-23.3
		h89.9c12.9,0,23.3,10.4,23.3,23.3V118.4z"/>
	<g>
		<g>
			<path class="st3" d="M96.3,127.6H52.8c-19.3,0-35-15.7-35-35V54.3c0-19.3,15.7-35,35-35h43.5c19.3,0,35,15.7,35,35v38.3
				C131.3,111.9,115.6,127.6,96.3,127.6z M52.8,27c-15,0-27.2,12.2-27.2,27.2v38.3c0,15,12.2,27.2,27.2,27.2h43.5
				c15,0,27.2-12.2,27.2-27.2V54.3c0-15-12.2-27.2-27.2-27.2H52.8z"/>
		</g>
		<g>
			<path class="st3" d="M74.6,104.6c-17.2,0-31.2-14-31.2-31.2c0-17.2,14-31.2,31.2-31.2c17.2,0,31.2,14,31.2,31.2
				C105.8,90.6,91.8,104.6,74.6,104.6z M74.6,50.1c-12.9,0-23.4,10.5-23.4,23.4c0,12.9,10.5,23.4,23.4,23.4
				C87.5,96.8,98,86.3,98,73.4C98,60.5,87.5,50.1,74.6,50.1z"/>
		</g>
		<g>
			<path class="st3" d="M111.7,43.2c0,3.6-2.9,6.5-6.5,6.5c-3.6,0-6.5-2.9-6.5-6.5c0-3.6,2.9-6.5,6.5-6.5
				C108.8,36.8,111.7,39.7,111.7,43.2z"/>
		</g>
	</g>
</g>
</svg>
