<?xml version="1.0" encoding="utf-8"?>
<!-- Generator: Adobe Illustrator 23.0.1, SVG Export Plug-In . SVG Version: 6.00 Build 0)  -->
<svg version="1.1" id="Capa_1" xmlns="http://www.w3.org/2000/svg" xmlns:xlink="http://www.w3.org/1999/xlink" x="0px" y="0px"
	 viewBox="0 0 223 209" style="enable-background:new 0 0 223 209;" xml:space="preserve">
<style type="text/css">
	.st0{display:none;}
	.st1{display:inline;}
	.st2{fill:#282828;}
	.st3{fill:#FFD900;}
</style>
<g>
	<g class="st0">
		<g class="st1">
			<g>
				<ellipse class="st2" cx="111.6" cy="103" rx="56.6" ry="56.6"/>
			</g>
			<path class="st3" d="M93.1,113.9c2.6,1.2,4.9,2,7.1,2.5s4,0.8,5.6,0.8c1.4,0,2.5-0.3,3.5-1s1.5-1.6,1.5-2.8c0-0.3,0-0.6-0.1-0.9
				s-0.2-0.6-0.3-0.8c-0.1-0.3-0.3-0.6-0.6-1c-0.3-0.4-0.5-0.7-0.8-0.9c-0.2-0.2-1.1-1-2.5-2.4c-4.2-4.1-7-7-8.4-8.6
				c-1.1-1.3-1.9-2.8-2.5-4.4s-0.9-3.2-0.9-4.8c0-1.2,0.2-2.4,0.5-3.6c0.4-1.2,0.9-2.3,1.6-3.3c0.7-1.1,1.5-2,2.5-2.8s2-1.5,3.2-2.1
				c1.1-0.5,2.8-1.1,5.1-1.7c0.1-0.8,0.1-1.3,0.1-1.5V72v-4.5c2.9,0.1,5.3,0.1,7.1,0.1c2.1,0,4.5,0,7.1-0.1
				c-0.1,2.9-0.2,4.6-0.2,5.1V76c2.6,0.4,5.2,0.9,7.7,1.6c0.2,4.3,0.4,8.7,0.8,13.2c-2.1-1-4.1-1.7-5.9-2.1s-3.3-0.6-4.5-0.6
				c-1.3,0-2.5,0.3-3.3,0.9c-0.9,0.6-1.3,1.4-1.3,2.4c0,0.8,0.3,1.6,0.8,2.4c0.5,0.7,1.2,1.6,2.2,2.4c3.4,3.2,5.9,5.8,7.6,7.7
				c1.6,1.9,2.8,3.7,3.4,5.5c0.7,1.7,1,3.4,1,5.1c0,1.4-0.2,2.7-0.5,3.9c-0.4,1.2-0.9,2.3-1.6,3.4c-0.7,1-1.5,1.9-2.4,2.8
				c-0.9,0.8-1.8,1.5-2.8,2.1c-0.9,0.6-2.3,1.3-4.2,2l-0.1,5c0,1.7,0,3.3,0,4.8c-2.9-0.1-5.1-0.1-6.8-0.1c-1.7,0-4.2,0-7.5,0.1
				c0.1-1.8,0.2-4.2,0.2-7v-1.6c-2.1-0.3-3.9-0.6-5.3-0.9c-1.4-0.3-3.2-0.8-5.3-1.5C93.6,120.9,93.3,116.4,93.1,113.9z"/>
		</g>
	</g>
	<g class="st0">
		<g class="st1">
			<g>
				<path class="st2" d="M31.9,103H21.7c0-49.5,40.3-89.8,89.8-89.8c32,0,61.8,17.2,77.8,44.9l-8.8,5.1
					c-14.2-24.6-40.7-39.8-69-39.8C67.6,23.3,31.9,59.1,31.9,103z"/>
			</g>
			<polygon class="st2" points="27.1,116.7 6.8,96.9 13.8,89.6 26.9,102.3 39.6,89.3 46.9,96.4 			"/>
		</g>
		<g class="st1">
			<g>
				<path class="st3" d="M111.5,193.5c-32,0-61.8-17.2-77.8-44.9l8.8-5.1c14.2,24.6,40.7,39.8,69,39.8c43.9,0,79.7-35.7,79.7-79.7
					h10.1C201.3,153.2,161,193.5,111.5,193.5z"/>
			</g>
			<polygon class="st3" points="196,90 216.3,109.8 209.2,117 196.2,104.3 183.5,117.4 176.2,110.3 			"/>
		</g>
	</g>
	<g>
		<g>
			<g>
				<path class="st2" d="M111.6,23.4c-28.3,0-54.8,15.2-69,39.8l-8.8-5.1c16-27.7,45.8-44.9,77.8-44.9c49.5,0,89.8,40.3,89.8,89.8
					h-10.2C191.2,59.1,155.5,23.3,111.6,23.4z"/>
			</g>
			<polygon class="st2" points="176.2,96.4 183.5,89.3 196.2,102.3 209.3,89.6 216.3,96.9 196,116.7 			"/>
		</g>
		<g>
			<g>
				<path class="st3" d="M21.8,103.6h10.1c0,44,35.8,79.7,79.7,79.7c28.3,0,54.8-15.2,69-39.8l8.8,5.1c-16,27.7-45.8,44.9-77.8,44.9
					C62.1,193.5,21.8,153.2,21.8,103.6z"/>
			</g>
			<polygon class="st3" points="46.9,110.3 39.6,117.4 26.9,104.3 13.9,117 6.8,109.8 27.1,90 			"/>
		</g>
	</g>
</g>
</svg>
